<svg width="40" height="40" viewBox="0 0 40 40" fill="none" xmlns="http://www.w3.org/2000/svg">
  <path d="M16.663 35C16.11 35 15.615 34.647 15.441 34.123L10.305 18.597C10.146 18.116 10.228 17.586 10.528 17.176C10.827 16.765 11.305 16.523 11.814 16.523H21.51C22.019 16.523 22.497 16.765 22.796 17.176C23.095 17.586 23.177 18.116 23.018 18.597L17.883 34.123C17.709 34.647 17.215 35 16.663 35Z" fill="black"/>
  <path d="M13.74 20.171L12.924 17.707H20.399L19.584 20.171H13.74Z" fill="white" fill-opacity="0.18"/>
  <path d="M28.112 8.228C31.018 10.308 31.811 14.347 29.884 17.338C28.956 18.778 27.57 19.731 26.044 20.083C25.21 20.275 24.494 20.801 24.067 21.543L23.807 21.995C23.185 23.076 21.803 23.494 20.669 22.978L20.254 22.79C19.354 22.38 18.793 21.469 18.837 20.481L18.853 20.129C18.889 19.333 18.609 18.556 18.082 17.958C15.946 15.537 15.69 11.882 17.624 9.179C19.997 5.863 24.796 5.139 28.112 8.228Z" fill="black"/>
  <path d="M25.645 10.112C27.112 11.163 27.461 13.066 26.754 14.163C26.048 15.26 24.555 15.136 23.088 14.085C21.62 13.034 21.271 11.131 21.978 10.034C22.684 8.937 24.177 9.061 25.645 10.112Z" fill="white" fill-opacity="0.12"/>
  <path d="M23.205 23.121C23.946 21.831 25.195 20.927 26.647 20.592L28.403 20.187L25.867 24.355C25.409 25.108 24.428 25.405 23.62 25.041C22.856 24.697 22.79 23.845 23.205 23.121Z" fill="black"/>
</svg>
