<svg width="40" height="40" viewBox="0 0 40 40" fill="none" xmlns="http://www.w3.org/2000/svg">
  <path d="M19.998 34C19.421 34 18.905 33.631 18.724 33.084L11.819 12.199C11.651 11.691 11.738 11.132 12.054 10.698C12.371 10.264 12.876 10.008 13.413 10.008H26.583C27.12 10.008 27.625 10.264 27.942 10.698C28.259 11.132 28.345 11.691 28.177 12.199L21.272 33.084C21.091 33.631 20.575 34 19.998 34Z" fill="black"/>
  <path d="M16.026 15.122L14.951 11.871H25.044L23.969 15.122H16.026Z" fill="white" fill-opacity="0.18"/>
  <path d="M20 4C15.525 4 12 7.135 12 11.112C12 12.825 12.654 14.388 13.746 15.621C13.931 15.83 14.036 16.098 14.036 16.377V17.219C14.036 18.23 14.856 19.05 15.867 19.05C16.325 19.05 16.767 18.877 17.104 18.565L18.481 17.289C19.065 16.748 19.964 16.744 20.553 17.281L21.995 18.594C22.328 18.898 22.762 19.066 23.213 19.066C24.208 19.066 25.015 18.26 25.015 17.265V16.383C25.015 16.102 25.124 15.834 25.312 15.626C26.394 14.427 27.035 12.903 27.035 11.242C27.035 7.185 24.286 4 20 4Z" fill="black"/>
  <rect x="16.7" y="7.35" width="2.1" height="4.1" rx="1.05" transform="rotate(-30 16.7 7.35)" fill="white" fill-opacity="0.15"/>
  <rect x="21.25" y="6.1" width="1.7" height="3.6" rx="0.85" transform="rotate(34 21.25 6.1)" fill="white" fill-opacity="0.12"/>
</svg>
